<?xml version="1.0" encoding="iso-8859-1"?>
<!-- Uploaded to: SVG Repo, www.svgrepo.com, Generator: SVG Repo Mixer Tools -->
<svg fill="#000000" height="800px" width="800px" version="1.1" id="Layer_1" xmlns="http://www.w3.org/2000/svg" xmlns:xlink="http://www.w3.org/1999/xlink" 
	 viewBox="0 0 512.004 512.004" xml:space="preserve">
<g>
	<g>
		<path d="M256.004,21.335c-141.163,0-256,95.701-256,213.333c0,41.643,14.165,79.381,43.285,115.157
			c0.789,16.811-0.192,67.584-37.035,104.427c-6.976,6.997-8.277,17.856-3.093,26.261c3.968,6.443,10.923,10.155,18.176,10.155
			c2.219,0,4.48-0.341,6.677-1.067c6.4-2.112,13.824-4.331,21.952-6.763c34.304-10.24,84.331-25.173,123.669-53.099
			c26.112,11.051,44.523,18.261,82.368,18.261c141.163,0,256-95.701,256-213.333S397.167,21.335,256.004,21.335z"/>
	</g>
</g>
</svg>